<svg xmlns="http://www.w3.org/2000/svg" version="1.1" xmlns:xlink="http://www.w3.org/1999/xlink" xmlns:svgjs="http://svgjs.dev/svgjs" width="1000" height="441" viewBox="0 0 1000 441"><g transform="matrix(1,0,0,1,-0.6060606060606233,-0.5483955932986362)"><svg viewBox="0 0 396 175" data-background-color="#f9f9f9" preserveAspectRatio="xMidYMid meet" height="441" width="1000" xmlns="http://www.w3.org/2000/svg" xmlns:xlink="http://www.w3.org/1999/xlink"><g id="tight-bounds" transform="matrix(1,0,0,1,0.2400000000000091,0.21761729892803316)"><svg viewBox="0 0 395.52 174.56476280252022" height="174.56476280252022" width="395.52"><g><svg viewBox="0 0 397.4975999999999 175.4375866165328" height="174.56476280252022" width="395.52"><g><rect width="397.4975999999999" height="5.373421566350961" x="0" y="96.41278527833768" fill="#030303" opacity="1" stroke-width="0" stroke="transparent" fill-opacity="1" class="rect-o-0" data-fill-palette-color="secondary" rx="1%" id="o-0" data-palette-color="#030303"></rect></g><g transform="matrix(1,0,0,1,0.9887999999999693,115.85275544770163)"><svg viewBox="0 0 395.52 59.58483116883117" height="59.58483116883117" width="395.52"><g id="textblocktransform"><svg viewBox="0 0 395.52 59.58483116883117" height="59.58483116883117" width="395.52" id="textblock"><g><svg viewBox="0 0 395.52 59.58483116883117" height="59.58483116883117" width="395.52"><g transform="matrix(1,0,0,1,0,0)"><svg width="395.52" viewBox="1.0499999523162842 -33.95000076293945 230.97999572753906 34.79999923706055" height="59.58483116883117" data-palette-color="#030303"><path d="M18.25 0.85L18.25 0.85Q13.4 0.85 9.5-1.15 5.6-3.15 3.33-7.05 1.05-10.95 1.05-16.55L1.05-16.55Q1.05-20.75 2.43-24 3.8-27.25 6.23-29.48 8.65-31.7 11.8-32.83 14.95-33.95 18.5-33.95L18.5-33.95Q21.25-33.95 23.65-33.33 26.05-32.7 28.25-31.5L28.25-31.5 28.45-24.95 27.1-24.95 25-28.9Q24.5-29.9 23.93-30.7 23.35-31.5 22.45-31.85L22.45-31.85Q21.2-32.45 19.5-32.45L19.5-32.45Q16.55-32.45 14.13-30.95 11.7-29.45 10.25-25.98 8.8-22.5 8.8-16.5L8.8-16.5Q8.8-10.55 10.18-7.05 11.55-3.55 13.9-2.08 16.25-0.6 19.2-0.6L19.2-0.6Q20.55-0.6 21.4-0.8 22.25-1 23.1-1.35L23.1-1.35Q24.1-1.75 24.65-2.53 25.2-3.3 25.6-4.3L25.6-4.3 27.5-8.85 28.85-8.85 28.65-1.65Q26.5-0.45 23.9 0.2 21.3 0.85 18.25 0.85ZM46.9 0.85L46.9 0.85Q43.85 0.85 41.05-0.25 38.25-1.35 36.02-3.53 33.8-5.7 32.5-8.95 31.2-12.2 31.2-16.55L31.2-16.55Q31.2-20.8 32.5-24.05 33.8-27.3 36.02-29.5 38.25-31.7 41.07-32.83 43.9-33.95 46.9-33.95L46.9-33.95Q49.9-33.95 52.72-32.85 55.55-31.75 57.75-29.58 59.95-27.4 61.25-24.15 62.55-20.9 62.55-16.55L62.55-16.55Q62.55-12.3 61.25-9.05 59.95-5.8 57.75-3.6 55.55-1.4 52.75-0.28 49.95 0.85 46.9 0.85ZM46.9-0.65L46.9-0.65Q49.75-0.65 51.5-2.13 53.25-3.6 54.05-7.1 54.85-10.6 54.85-16.55L54.85-16.55Q54.85-22.5 54.05-25.98 53.25-29.45 51.5-30.93 49.75-32.4 46.9-32.4L46.9-32.4Q44.1-32.4 42.32-30.93 40.55-29.45 39.75-25.98 38.95-22.5 38.95-16.55L38.95-16.55Q38.95-10.6 39.75-7.1 40.55-3.6 42.32-2.13 44.1-0.65 46.9-0.65ZM77.25 0L64.75 0 64.75-1.05 65.75-1.35Q66.75-1.7 67.07-2.27 67.4-2.85 67.4-3.9L67.4-3.9 67.4-29.15Q67.4-30.2 67.07-30.78 66.75-31.35 65.75-31.7L65.75-31.7 64.75-32 64.75-33.05 77.25-33.05 77.25-32 76.25-31.7Q75.3-31.35 74.95-30.78 74.59-30.2 74.59-29.15L74.59-29.15 74.59-3.9Q74.59-2.85 74.95-2.27 75.3-1.7 76.25-1.35L76.25-1.35 77.25-1.05 77.25 0ZM87.84 0L80.14 0 80.14-1.05 81.59-1.45Q82.54-1.7 82.92-2.4 83.29-3.1 83.29-4.1L83.29-4.1 83.29-28.3Q82.84-29.25 82.52-29.73 82.19-30.2 81.84-30.55 81.49-30.9 80.89-31.35L80.89-31.35 79.99-32 79.99-33.05 88.54-33.05 105.14-10.35 105.14-28.9Q105.14-29.9 104.82-30.65 104.49-31.4 103.49-31.65L103.49-31.65 101.99-32 101.99-33.05 109.44-33.05 109.44-32 108.19-31.65Q107.24-31.35 107.02-30.63 106.79-29.9 106.79-28.9L106.79-28.9 106.79 0.2 103.99 0.2 84.94-26 84.94-4.15Q84.94-3.1 85.24-2.4 85.54-1.7 86.49-1.45L86.49-1.45 87.84-1.05 87.84 0ZM125.69-11.6L113.19-11.6 113.19-13.7 125.69-13.7 125.69-11.6ZM141.09 0L128.84 0 128.84-1.05 129.84-1.4Q131.44-1.9 131.44-3.9L131.44-3.9Q131.49-6.75 131.49-9.73 131.49-12.7 131.49-15.8L131.49-15.8 131.49-17.55Q131.49-20.45 131.49-23.35 131.49-26.25 131.44-29.15L131.44-29.15Q131.44-31.2 129.89-31.7L129.89-31.7 128.84-32 128.84-33.05 141.99-33.05Q147.24-33.05 151.04-31.1 154.84-29.15 156.89-25.48 158.94-21.8 158.94-16.6L158.94-16.6Q158.94-11.3 156.71-7.6 154.49-3.9 150.46-1.95 146.44 0 141.09 0L141.09 0ZM138.69-1.45L138.69-1.45 141.24-1.45Q144.79-1.45 147.01-2.85 149.24-4.25 150.29-7.58 151.34-10.9 151.34-16.55L151.34-16.55Q151.34-22.2 150.29-25.5 149.24-28.8 147.06-30.2 144.89-31.6 141.44-31.6L141.44-31.6 138.69-31.6Q138.64-28.15 138.64-24.63 138.64-21.1 138.64-17.55L138.64-17.55 138.64-15.85Q138.64-12.1 138.64-8.53 138.64-4.95 138.69-1.45ZM176.74 0.85L176.74 0.85Q173.69 0.85 170.89-0.25 168.09-1.35 165.86-3.53 163.64-5.7 162.34-8.95 161.04-12.2 161.04-16.55L161.04-16.55Q161.04-20.8 162.34-24.05 163.64-27.3 165.86-29.5 168.09-31.7 170.91-32.83 173.74-33.95 176.74-33.95L176.74-33.95Q179.74-33.95 182.56-32.85 185.39-31.75 187.59-29.58 189.79-27.4 191.09-24.15 192.39-20.9 192.39-16.55L192.39-16.55Q192.39-12.3 191.09-9.05 189.79-5.8 187.59-3.6 185.39-1.4 182.59-0.28 179.79 0.85 176.74 0.85ZM176.74-0.65L176.74-0.65Q179.59-0.65 181.34-2.13 183.09-3.6 183.89-7.1 184.69-10.6 184.69-16.55L184.69-16.55Q184.69-22.5 183.89-25.98 183.09-29.45 181.34-30.93 179.59-32.4 176.74-32.4L176.74-32.4Q173.94-32.4 172.16-30.93 170.39-29.45 169.59-25.98 168.79-22.5 168.79-16.55L168.79-16.55Q168.79-10.6 169.59-7.1 170.39-3.6 172.16-2.13 173.94-0.65 176.74-0.65ZM201.48 0L194.48 0 194.48-1.1 195.48-1.4Q196.43-1.7 196.78-2.38 197.13-3.05 197.13-4.15L197.13-4.15 197.13-28.9Q197.13-29.9 196.88-30.53 196.63-31.15 195.63-31.5L195.63-31.5 194.48-31.95 194.48-33.05 204.03-33.05 213.43-8.6 222.28-33.05 232.03-33.05 232.03-31.95 231.23-31.7Q230.28-31.4 229.93-30.78 229.58-30.15 229.58-29.15L229.58-29.15Q229.53-26.25 229.53-23.38 229.53-20.5 229.53-17.55L229.53-17.55 229.53-15.5Q229.53-12.6 229.53-9.7 229.53-6.8 229.58-3.95L229.58-3.95Q229.58-2.9 229.83-2.35 230.08-1.8 231.03-1.45L231.03-1.45 232.03-1.1 232.03 0 219.88 0 219.88-1.1 220.98-1.45Q221.93-1.8 222.16-2.38 222.38-2.95 222.38-3.95L222.38-3.95 222.38-14.8 222.48-28.2 212.28 0 209.48 0 198.73-27.9 198.93-16.5 198.93-4.1Q198.93-3 199.23-2.35 199.53-1.7 200.48-1.45L200.48-1.45 201.48-1.1 201.48 0Z" opacity="1" transform="matrix(1,0,0,1,0,0)" fill="#030303" class="undefined-text-0" data-fill-palette-color="primary" id="text-0"></path></svg></g></svg></g></svg></g></svg></g><g transform="matrix(1,0,0,1,149.57568166233762,0)"><svg viewBox="0 0 98.34623667532469 82.34623667532469" height="82.34623667532469" width="98.34623667532469"><g><svg xmlns="http://www.w3.org/2000/svg" xmlns:xlink="http://www.w3.org/1999/xlink" version="1.1" x="8" y="0" viewBox="0 0 100 100" enable-background="new 0 0 100 100" xml:space="preserve" height="82.34623667532469" width="82.34623667532469" class="icon-icon-0" data-fill-palette-color="accent" id="icon-0"><path d="M50 0C22.386 0 0 22.386 0 50s22.386 50 50 50 50-22.386 50-50S77.615 0 50 0zM50 95.625C24.802 95.625 4.375 75.199 4.375 50S24.802 4.375 50 4.375c25.197 0 45.625 20.427 45.625 45.625S75.198 95.625 50 95.625z" fill="#030303" data-fill-palette-color="accent"></path><path d="M50 5.5C25.423 5.5 5.5 25.423 5.5 50c0 24.576 19.923 44.5 44.5 44.5 24.576 0 44.5-19.924 44.5-44.5C94.5 25.423 74.577 5.5 50 5.5zM52.857 68.944v6.398h-6.148v-5.9c-4.161-0.188-8.199-1.367-10.559-2.671l1.863-7.269c2.608 1.43 6.272 2.733 10.311 2.733 3.602 0 6.024-1.429 6.024-3.85 0-2.361-1.987-3.852-6.646-5.405-6.646-2.235-11.181-5.34-11.181-11.365 0-5.528 3.852-9.813 10.498-11.055V24.66h6.086v5.466c4.1 0.124 6.895 1.056 9.068 2.05l-1.863 7.018c-1.554-0.745-4.473-2.173-8.943-2.173-4.039 0-5.344 1.801-5.344 3.54 0 1.987 2.175 3.354 7.517 5.279 7.391 2.608 10.31 6.023 10.31 11.676C63.85 63.044 60 67.763 52.857 68.944z" fill="#030303" data-fill-palette-color="accent"></path></svg></g></svg></g><g><rect width="73.04256166233765" height="5.373421566350961" y="75.97281510897373" x="247.9219183376623" fill="#030303" data-fill-palette-color="secondary"></rect><rect width="73.04256166233765" height="5.373421566350961" y="75.97281510897373" x="76.53311999999997" fill="#030303" data-fill-palette-color="secondary"></rect></g></svg></g><defs></defs></svg><rect width="395.52" height="174.56476280252022" fill="none" stroke="none" visibility="hidden"></rect></g></svg></g></svg>